<?xml version="1.0" encoding="utf-8"?>
<svg viewBox="0 0 500 500" width="500" height="500" xmlns="http://www.w3.org/2000/svg">
  <path d="M 111.871 206.607 L 104.95 206.607 L 104.95 311.218 L 111.871 311.218 L 111.871 325.918 L 86.229 325.918 L 86.229 191.841 L 111.871 191.841 Z" transform="matrix(1.251754, 0, 0, 1.742621, -12.029478, -198.505249)" style="paint-order: stroke; stroke: rgb(66, 35, 35); stroke-opacity: 0.97; text-transform: capitalize; white-space: pre;"/>
  <path d="M 146.342 207.595 L 165.393 207.595 L 199.011 311.812 L 179.96 311.812 Z" transform="matrix(1.251754, 0, 0, 1.742621, -12.029478, -198.505249)" style="paint-order: stroke; stroke: rgb(66, 35, 35); stroke-opacity: 0.97; text-transform: capitalize; white-space: pre;"/>
  <path d="M 241.858 311.812 L 228.213 311.812 L 257.02 207.595 L 270.665 207.595 Z" transform="matrix(1.251754, 0, 0, 1.742621, -12.029478, -198.505249)" style="paint-order: stroke; stroke: rgb(66, 35, 35); stroke-opacity: 0.97; text-transform: capitalize; white-space: pre;"/>
  <path d="M 306.325 191.841 L 331.967 191.841 L 331.967 325.918 L 306.325 325.918 L 306.325 311.218 L 313.312 311.218 L 313.312 206.607 L 306.325 206.607 Z" transform="matrix(1.251754, 0, 0, 1.742621, -12.029478, -198.505249)" style="paint-order: stroke; stroke: rgb(66, 35, 35); stroke-opacity: 0.97; text-transform: capitalize; white-space: pre;"/>
</svg>